<svg xmlns="http://www.w3.org/2000/svg" width="512" height="512" viewBox="0 0 512 512" version="1.1">
	<path d="M 178.634 6.586 C 169.292 8.848, 161.703 13.578, 150.557 24.085 C 136.346 37.482, 136.306 37.500, 120.500 37.500 C 108.309 37.500, 107.148 37.673, 101.839 40.280 C 95.033 43.622, 89.686 49.285, 86.165 56.880 C 83.622 62.364, 83.553 63.065, 83.294 85.888 C 82.997 112.066, 83.188 113.039, 90.607 123.146 C 92.605 125.867, 94.073 128.202, 93.870 128.335 C 78.171 138.573, 68.181 151.199, 60.349 170.701 C 53.573 187.573, 50.661 192.023, 38.926 203.437 C 32.917 209.283, 28 214.448, 28 214.915 C 28 216.173, 45.865 212.059, 50.455 209.744 C 56.743 206.574, 65.454 197.519, 73.222 186.080 C 80.982 174.651, 88.219 166.372, 94.400 161.852 C 98.670 158.729, 102.599 157.995, 101.638 160.500 C 100.925 162.358, 100.911 162.358, 105.628 160.358 C 110.466 158.307, 125.852 154, 128.341 154 C 130.124 154, 130.119 154.122, 128.228 157.109 C 127.145 158.819, 123.355 163.432, 119.805 167.359 C 104.512 184.281, 102.855 188.777, 102.404 214.586 C 101.984 238.594, 100.752 242.249, 88.442 255.998 C 84.320 260.603, 83.076 262.584, 84.174 262.795 C 85.027 262.959, 90.399 261.337, 96.112 259.190 C 116.304 251.601, 127.236 244.866, 131.686 237.272 C 134.201 232.982, 134.386 231.750, 135.088 214.618 C 136.503 180.096, 139.391 161.791, 145.609 147.937 C 147.751 143.163, 149.596 140.889, 154.199 137.347 C 161.174 131.980, 162.384 130.267, 165.870 120.821 L 168.532 113.609 174.016 111.971 C 181.948 109.602, 185.283 107.634, 193.480 100.485 C 199.876 94.907, 210.970 87, 212.401 87 C 213.626 87, 233.226 102.512, 237.874 107.159 C 243.916 113.201, 249.950 124.558, 252.614 134.902 C 253.620 138.806, 254.757 142, 255.140 142 C 255.523 142, 256.823 138.963, 258.029 135.250 C 260.890 126.442, 267.067 114.892, 272.189 108.774 C 276.415 103.727, 296.513 88.043, 298.790 88.015 C 301.289 87.986, 308.057 92.095, 315.737 98.305 C 327.104 107.497, 328.921 108.625, 336.094 110.942 L 342.605 113.046 346.533 121.773 C 349.616 128.625, 351.816 131.837, 356.770 136.724 C 370.002 149.773, 376.201 172.886, 377.629 214.500 C 378.110 228.497, 378.562 232.248, 380.188 235.733 C 382.791 241.315, 391.170 247.969, 402.500 253.451 C 411.744 257.924, 427.671 263.662, 428.512 262.821 C 428.771 262.562, 425.998 259.034, 422.349 254.983 C 411.242 242.651, 408.682 234.416, 409.681 214.235 C 410.648 194.707, 407.240 185.299, 393.540 169.690 C 384.626 159.534, 379.271 151.123, 382.511 152.366 C 389.507 155.051, 409.513 159.960, 409.811 159.066 C 410.853 155.940, 418.079 160.188, 426.067 168.622 C 429.129 171.855, 435.013 179.675, 439.142 186 C 448.105 199.729, 457.443 209.005, 464.674 211.361 C 468.846 212.720, 480.508 214.970, 483.497 214.992 C 484.046 214.997, 479.321 209.918, 472.997 203.707 C 460.760 191.686, 457.903 187.255, 452.337 171.661 C 448.771 161.671, 442.819 150.523, 437.468 143.809 C 433.600 138.957, 424.311 130.952, 419.281 128.137 C 418.097 127.475, 418.419 126.675, 420.985 123.910 C 422.726 122.035, 425.333 118.250, 426.778 115.500 L 429.406 110.500 429.161 88 C 428.888 62.951, 428.111 58.385, 422.759 50.376 C 419.109 44.915, 411.828 39.569, 405.844 37.958 C 403.414 37.304, 398.290 37.152, 392.644 37.566 C 384.043 38.197, 383.077 38.072, 378.457 35.723 C 375.731 34.337, 369.111 29.169, 363.746 24.238 C 358.381 19.308, 351.323 13.852, 348.060 12.113 C 340.831 8.260, 328.566 5, 321.298 5 C 306.889 5, 289.875 11.436, 276.787 21.836 C 264.880 31.298, 260.259 37.389, 256.934 48 L 255.211 53.500 254.482 48.500 C 253.373 40.887, 251.598 37.480, 245.286 30.846 C 226.809 11.428, 199.579 1.517, 178.634 6.586 M 174.500 43.441 C 171.200 44.202, 164.500 46.384, 159.612 48.289 L 150.724 51.754 155.112 54.268 C 164.723 59.776, 164.861 59.814, 169.371 58.256 C 175.385 56.178, 187.290 56.441, 194.782 58.818 C 209.661 63.537, 224.783 75.626, 230.498 87.371 C 234.853 96.322, 235.065 93.349, 230.980 80.596 C 225.118 62.296, 214.330 50.790, 197.652 45.052 C 189.805 42.353, 181.675 41.787, 174.500 43.441 M 321 43.159 C 308.015 45.156, 293.694 55.555, 287.253 67.664 C 284.029 73.725, 280.735 83.291, 279.561 90 C 278.979 93.327, 279.078 93.253, 281.571 88.500 C 283.013 85.750, 285.334 81.814, 286.730 79.754 C 290.241 74.569, 301.942 65.863, 311.465 61.349 C 318.478 58.025, 320.523 57.526, 328.571 57.174 C 335.089 56.889, 339.325 57.243, 343.338 58.410 L 348.966 60.046 354.733 57.104 C 357.905 55.486, 361.400 53.465, 362.500 52.613 C 364.238 51.266, 364.277 51.059, 362.798 51.032 C 361.863 51.014, 355.563 49.260, 348.798 47.133 C 334.970 42.786, 328.986 41.930, 321 43.159 M 113.500 64.431 C 108.409 66.296, 103.580 71.809, 101.291 78.370 C 98.534 86.267, 98.780 104.417, 101.760 113.034 C 106.129 125.667, 113.258 131, 125.778 131 C 133.791 131, 140.686 128.853, 148.414 123.952 C 154.425 120.140, 153.899 119.244, 147.405 122.233 C 143.471 124.043, 140.719 124.491, 133.500 124.495 C 125.684 124.499, 123.758 124.136, 118.858 121.730 C 112.593 118.653, 106.343 112.460, 102.832 105.849 C 100.955 102.317, 100.530 99.996, 100.568 93.500 C 100.616 85.399, 102.785 76.094, 105.422 72.676 C 106.772 70.925, 107.085 70.959, 113.165 73.514 C 129.630 80.432, 133.008 81.287, 141.513 80.692 C 149.527 80.131, 155.030 78.733, 154.966 77.275 C 154.924 76.312, 142.060 68.799, 135.442 65.871 C 129.207 63.113, 118.936 62.439, 113.500 64.431 M 380 64.663 C 377.525 65.525, 372.280 68.316, 368.345 70.865 C 364.410 73.414, 360.370 75.992, 359.368 76.594 C 357.794 77.540, 358.273 77.930, 362.890 79.464 C 371.714 82.394, 382.219 81.296, 394.408 76.168 C 399.857 73.876, 404.904 72, 405.623 72 C 410.645 72, 413.850 94.188, 410.329 104.572 C 407.872 111.815, 398.160 121.281, 391.005 123.406 C 383.036 125.772, 372.868 125.434, 364.500 122.523 L 357.500 120.088 360.500 122.634 C 366.771 127.956, 379.048 132, 388.935 132 C 392.269 132, 395.408 131.145, 399.036 129.250 C 403.344 126.999, 404.905 125.409, 407.625 120.500 C 416.945 103.680, 415.845 78.772, 405.342 68.803 C 399.311 63.079, 389.260 61.437, 380 64.663 M 115.668 81.003 C 116.126 81.425, 120.127 83.858, 124.560 86.410 C 134.278 92.004, 140 93.014, 148.298 90.602 C 151.395 89.701, 155.095 87.960, 156.520 86.732 L 159.111 84.500 144.805 84.367 C 134.131 84.268, 128.512 83.727, 122.668 82.235 C 118.360 81.136, 115.210 80.581, 115.668 81.003 M 354.214 83.153 C 354.903 85.234, 362.025 89.728, 366.747 91.060 C 374.267 93.182, 383.928 90.815, 393.500 84.505 L 397.500 81.868 393.500 82.428 C 372.328 85.392, 360.779 85.557, 355.935 82.965 C 354.194 82.034, 353.856 82.070, 354.214 83.153 M 390.801 93.545 C 386.358 95.957, 373.995 97.471, 368.382 96.291 C 365.697 95.726, 362.600 94.896, 361.500 94.445 C 359.742 93.725, 359.661 93.824, 360.829 95.260 C 361.560 96.159, 364.150 97.656, 366.585 98.586 C 374.197 101.493, 384.984 99.422, 392.500 93.610 C 395.012 91.668, 394.308 91.641, 390.801 93.545 M 128 94.601 C 128 94.874, 129.912 95.966, 132.250 97.027 C 137.602 99.457, 145.283 99.500, 150.500 97.131 L 154.500 95.314 144.340 95.787 C 138.360 96.065, 132.910 95.816, 131.090 95.181 C 129.391 94.589, 128 94.328, 128 94.601 M 159.281 97.078 C 150.502 103.297, 138.831 104.806, 128.761 101.025 C 123.576 99.078, 123.536 99.078, 126 101.002 C 133.770 107.072, 144.325 108.636, 152.828 104.979 C 157.634 102.911, 164 97.205, 164 94.965 C 164 93.698, 164.142 93.634, 159.281 97.078 M 350.595 96.194 C 357.564 104.218, 364.097 107.354, 372.706 106.806 C 376.165 106.586, 379.558 105.810, 380.247 105.081 C 381.279 103.991, 380.877 103.868, 377.973 104.382 C 372.852 105.289, 363.500 102.528, 356.192 97.951 C 348.986 93.437, 347.907 93.099, 350.595 96.194 M 219.208 114.835 C 212.022 118.557, 206.210 124.398, 203.122 131 C 200.880 135.794, 200.553 137.807, 200.574 146.685 C 200.590 153.512, 200.252 156.672, 199.549 156.271 C 198.972 155.942, 197.375 154.908, 196 153.975 C 190.722 150.391, 186.486 149.717, 180.389 151.489 C 177.291 152.390, 173.130 153.998, 171.143 155.063 C 167.142 157.208, 162.542 157.537, 158.426 155.972 C 156.939 155.407, 155.474 155.193, 155.170 155.497 C 154.220 156.447, 157.083 163.337, 159.950 167 C 162.113 169.765, 162.802 171.919, 163.230 177.255 C 164.205 189.434, 171.856 200.395, 182.742 205.210 C 186.492 206.869, 188.502 207.122, 193.688 206.591 C 198.937 206.053, 200.144 206.212, 200.641 207.508 C 201.553 209.884, 198.578 216.698, 192.327 226.551 C 187.306 234.464, 182.524 243.772, 180.537 249.500 C 179.935 251.235, 178.561 250.174, 170.172 241.498 C 155.414 226.237, 149.515 213.033, 148.282 192.505 L 147.682 182.509 145.201 189.505 C 143.221 195.084, 142.705 198.524, 142.649 206.500 C 142.553 220.072, 145.996 230.547, 155.395 245.283 C 160.915 253.938, 163.096 258.906, 164.092 265.093 C 165.976 276.792, 162.846 287.082, 151.019 308.062 C 138.815 329.711, 134.367 345.222, 135.278 362.954 C 136.096 378.888, 140.429 390.828, 151.170 406.750 C 156.898 415.241, 155.919 416.057, 147.151 410.103 C 139.119 404.648, 125.741 390.214, 122.413 383.413 C 120.271 379.034, 119.521 375.742, 119.046 368.639 L 118.434 359.500 116.731 363.339 C 105.821 387.929, 120.525 426.352, 149.262 448.346 C 156.098 453.578, 172.998 463, 175.547 463 C 176.193 463, 172.926 455.559, 168.289 446.464 C 163.652 437.369, 160.028 429.417, 160.236 428.792 C 160.444 428.168, 163.799 431.447, 167.691 436.079 C 183.502 454.894, 187.256 458.062, 209.268 471.157 C 229.737 483.335, 238.261 490.002, 247.910 501.383 L 255.321 510.123 265.910 499.192 C 276.736 488.017, 282.603 483.621, 303.644 470.913 C 321.581 460.080, 329.785 453.264, 342.997 438.218 C 346.997 433.663, 350.513 430.179, 350.810 430.476 C 351.107 430.773, 347.813 437.979, 343.489 446.489 C 339.166 454.999, 335.919 462.252, 336.273 462.607 C 337.109 463.443, 351.637 456.011, 358.876 451.045 C 375.866 439.388, 389.843 421.395, 396.152 403.058 C 400.343 390.877, 400.661 371.472, 396.820 362.320 C 395.737 359.739, 395.576 360.222, 394.918 368 C 393.704 382.359, 386.216 395.022, 372.669 405.622 C 365.762 411.026, 356.244 416.577, 355.374 415.708 C 355.140 415.473, 356.785 413.080, 359.031 410.391 C 364.128 404.286, 373.448 385.637, 375.719 377 C 376.911 372.465, 377.400 366.872, 377.337 358.500 C 377.221 343.314, 374.512 333.450, 365.801 316.500 C 350.113 285.972, 349.047 283.588, 348.116 276.913 C 346.973 268.722, 348.080 262.263, 351.870 255 C 364.199 231.374, 367.001 225.289, 368.417 219.064 C 371.167 206.974, 370.192 193.808, 365.737 182.891 C 364.488 179.830, 364.407 180.145, 364.281 188.575 C 364.061 203.379, 360.181 217.784, 353.769 227.605 C 350.793 232.165, 333.467 250, 332.014 250 C 331.655 250, 329.865 246.594, 328.035 242.432 C 326.206 238.269, 321.625 230.099, 317.855 224.276 C 312.011 215.249, 311 213.036, 311 209.264 L 311 204.841 314.250 205.571 C 319.883 206.835, 326.974 206.191, 331.489 204.005 C 340.889 199.455, 348 187.645, 348 176.585 C 348 172.861, 348.495 170.834, 349.636 169.887 C 351.861 168.041, 355.416 162.225, 356.820 158.137 C 357.929 154.907, 357.886 154.800, 355.737 155.439 C 349.049 157.428, 346.090 157.197, 337.114 153.987 C 326.510 150.193, 321.714 150.262, 315.321 154.297 L 311.217 156.888 310.850 146.194 C 310.533 136.968, 310.101 134.720, 307.701 129.818 C 304.341 122.954, 299.690 118.686, 291.282 114.751 C 285.157 111.885, 282 111.675, 282 114.135 C 282 114.793, 285.608 118.701, 290.018 122.819 C 297.411 129.723, 298.199 130.844, 300.139 137.231 C 303.253 147.483, 302.448 157.802, 297.684 168.725 C 290.164 185.970, 290.813 198.380, 300.410 220.792 C 302.363 225.353, 305.125 233.453, 306.549 238.792 C 307.973 244.132, 309.356 249.266, 309.622 250.203 C 309.970 251.431, 308.906 252.509, 305.802 254.069 C 303.436 255.259, 300.688 256.947, 299.697 257.820 C 298.498 258.874, 295.814 259.440, 291.697 259.506 C 287.259 259.577, 282.378 260.701, 274.500 263.469 C 258.853 268.966, 252.089 268.913, 234.650 263.152 C 224.383 259.760, 220.962 259.033, 217.627 259.533 C 214.133 260.057, 213.132 259.803, 211.477 257.973 C 210.390 256.771, 207.813 254.926, 205.750 253.873 C 203.688 252.821, 202.001 251.406, 202.003 250.730 C 202.008 247.942, 207.120 230.704, 210.848 220.900 C 216.699 205.513, 218.312 198.620, 218.314 189 C 218.316 181.542, 217.867 179.381, 214.654 171.367 C 210.128 160.076, 208.742 153.128, 209.597 146 C 210.814 135.852, 213.346 130.988, 221.508 123.123 C 232.310 112.715, 231.178 108.635, 219.208 114.835 M 413.564 165.293 C 413.940 166.279, 414.499 166.834, 414.807 166.526 C 415.115 166.219, 414.808 165.412, 414.124 164.733 C 413.136 163.753, 413.022 163.868, 413.564 165.293 M 193.193 172.250 C 193.478 176.201, 193.720 176.521, 196.625 176.804 C 199.866 177.119, 203 175.003, 203 172.500 C 203 170.078, 199.939 168, 196.371 168 C 192.888 168, 192.885 168.004, 193.193 172.250 M 310.250 168.662 C 309.563 168.940, 309 170.696, 309 172.564 C 309 175.384, 309.440 176.072, 311.585 176.611 C 314.727 177.399, 316.537 175.754, 317.479 171.250 C 318.141 168.088, 318.069 168.002, 314.829 168.079 C 312.998 168.122, 310.938 168.385, 310.250 168.662 M 176.522 171.173 C 173.784 171.696, 171.392 172.275, 171.206 172.460 C 170.350 173.316, 177.191 184.891, 180.500 188.184 C 187.643 195.293, 194.867 196.866, 204.968 193.510 C 209.654 191.954, 210 191.613, 210 188.545 C 210 182.296, 208.882 178.824, 207.114 179.585 C 195.598 184.541, 193.434 184.125, 188.416 175.996 C 184.490 169.634, 184.523 169.647, 176.522 171.173 M 322.577 174.848 C 321.151 177.662, 318.839 180.714, 317.440 181.631 C 315.063 183.189, 314.494 183.187, 308.820 181.610 C 305.479 180.681, 302.629 180.051, 302.486 180.210 C 302.343 180.370, 301.907 182.868, 301.518 185.761 L 300.809 191.022 304.655 192.638 C 306.770 193.527, 311.224 194.477, 314.553 194.748 C 321.897 195.348, 327.023 193.128, 332.164 187.122 C 335.988 182.655, 339.762 173.362, 338.333 171.933 C 337.827 171.427, 334.658 170.725, 331.291 170.373 L 325.169 169.733 322.577 174.848 M 86.192 194 C 81.647 209.709, 78.589 215.052, 72.443 218.028 C 66.642 220.836, 65.110 220.557, 68.173 217.250 C 72.027 213.091, 76 206.754, 76 204.768 C 76 202.400, 75.697 202.485, 70.728 206.250 C 68.369 208.037, 63.335 211.075, 59.542 213 C 50.211 217.735, 41.198 226.639, 37.183 235.088 C 28.507 253.345, 28.966 275.356, 38.404 293.636 C 42.474 301.519, 44.703 304.630, 45.623 303.710 C 45.978 303.356, 46.645 298.889, 47.107 293.783 C 49.066 272.116, 54.176 259.796, 69 241 C 73.989 234.675, 79.635 226.350, 81.549 222.500 C 85.634 214.281, 88.212 202.965, 87.792 195.097 L 87.494 189.500 86.192 194 M 424.731 193.602 C 422.329 196.005, 426.007 213.167, 431.132 223.465 C 432.898 227.013, 438.319 234.997, 443.178 241.208 C 457.483 259.491, 463.021 273.306, 464.585 294.610 C 464.966 299.804, 465.620 304.265, 466.037 304.523 C 467.047 305.147, 472.252 296.940, 475.490 289.618 C 479.867 279.721, 481.271 271.758, 480.710 260 C 479.679 238.355, 470.610 223.183, 452.426 212.678 C 448.067 210.159, 442.949 206.951, 441.052 205.547 C 439.095 204.098, 437.228 203.372, 436.734 203.866 C 435.470 205.130, 438.201 211.020, 442.125 215.492 L 445.500 219.340 442.500 218.625 C 435.918 217.056, 430.926 211.185, 428.418 202.063 C 426.321 194.438, 425.585 192.748, 424.731 193.602 M 197.169 235.460 C 192.898 240.325, 189.427 246.522, 185.287 256.677 C 182.283 264.046, 181.699 266.710, 181.608 273.468 C 181.513 280.512, 181.865 282.220, 184.467 287.356 C 191.042 300.332, 207.720 310, 223.531 310 C 227.501 310, 232.605 309.345, 234.874 308.544 C 238.563 307.243, 239 307.253, 239 308.643 C 239 313.169, 227.475 319, 218.529 319 C 210.259 319, 195.720 313.720, 191.004 309.004 C 189.100 307.100, 189.068 307.121, 188.409 310.634 C 187.384 316.096, 188.519 326.123, 190.725 331.112 C 193.343 337.029, 198.200 342.445, 203.887 345.788 C 207.865 348.127, 209.601 348.500, 216.500 348.500 C 223.331 348.500, 225.330 348.079, 230.179 345.622 C 236.034 342.655, 249.159 331.441, 251.167 327.688 C 253.578 323.183, 252.213 316.029, 246.894 305.293 C 240.827 293.047, 238.221 290.507, 223.500 282.494 C 209.942 275.114, 201.735 267.619, 199.986 261.018 C 198.846 256.719, 199.298 249.806, 201.638 235.750 C 202.425 231.020, 201.140 230.937, 197.169 235.460 M 309.429 234.500 C 311.779 248.010, 312.182 251.952, 311.693 256.681 C 310.585 267.418, 304.724 273.556, 286.169 283.410 C 273.734 290.014, 269.603 293.720, 268.005 299.706 C 267.301 302.343, 265.341 306.714, 263.649 309.420 C 261.280 313.210, 260.481 315.787, 260.172 320.638 L 259.771 326.935 266.038 333.461 C 279.570 347.554, 292.075 351.494, 306.198 346.116 C 310.387 344.521, 316.598 338.386, 318.829 333.641 C 321.533 327.888, 323.256 317.892, 322.460 312.579 L 321.812 308.262 316.802 311.633 C 306.329 318.681, 290.002 320.717, 280.698 316.136 C 276.151 313.897, 272.062 309.605, 273.298 308.369 C 273.610 308.056, 275.502 308.341, 277.501 309 C 288.935 312.774, 307.852 308.164, 318.158 299.092 C 328.674 289.836, 331.371 277.609, 326.582 260.913 C 323.307 249.495, 319.952 243.150, 313.704 236.559 C 309.032 231.632, 308.921 231.578, 309.429 234.500 M 142.560 245.541 C 140.402 257.064, 133.533 265.359, 116.608 276.880 C 102.348 286.586, 95.059 292.769, 88.497 300.725 C 75.107 316.959, 68.573 340.090, 71.048 362.500 C 72.219 373.097, 74.013 379.133, 78.631 388 C 82.239 394.928, 90.326 406.264, 92.084 406.857 C 92.814 407.103, 92.887 404.929, 92.321 399.857 C 91.042 388.396, 91.567 368.186, 93.278 363 L 94.763 358.500 95.473 363.500 C 97.083 374.841, 102.965 390, 105.755 390 C 106.670 390, 106.989 389.415, 106.612 388.431 C 106.281 387.568, 105.065 382.280, 103.909 376.681 C 102.167 368.237, 101.894 364.196, 102.309 353 C 102.847 338.443, 104.500 330.418, 109.039 320.313 C 112.631 312.314, 116.090 307.426, 125.533 297 C 134.352 287.263, 140.858 277.722, 143.601 270.500 C 145.688 265.004, 146.104 248.663, 144.275 244.041 C 143.344 241.690, 143.268 241.756, 142.560 245.541 M 368.680 245 C 368.302 246.375, 367.708 250.705, 367.360 254.623 C 366.124 268.551, 371.192 279.028, 388.100 297.500 C 393.135 303, 399.001 310.165, 401.138 313.422 C 405.329 319.812, 409.208 330.789, 411.085 341.569 C 412.898 351.976, 411.750 369.638, 408.563 380.391 C 407.113 385.281, 406.091 389.772, 406.290 390.371 C 406.490 390.971, 408.019 389.576, 409.688 387.272 C 412.925 382.803, 416.434 372.696, 417.594 364.500 L 418.302 359.500 419.810 364 C 421.463 368.929, 422.084 393.706, 420.769 402.250 C 420.367 404.863, 420.407 407, 420.858 407 C 421.939 407, 432.208 392.610, 434.782 387.488 C 435.891 385.281, 437.856 380.106, 439.149 375.988 C 441.222 369.384, 441.487 366.669, 441.391 353 C 441.265 335.092, 439.527 326.787, 433.125 313.500 C 426.441 299.626, 417.714 290.921, 395.560 276.026 C 380.403 265.836, 373.218 257.507, 370.522 247 C 369.476 242.928, 369.301 242.738, 368.680 245 M 428 251.745 C 428 253.319, 434.112 261.965, 436.315 263.508 C 437.670 264.457, 438.763 264.637, 439.386 264.014 C 440.009 263.391, 438.581 261.016, 435.369 257.337 C 430.529 251.794, 428 249.875, 428 251.745 M 76.506 257.994 C 72.516 262.045, 71.831 263.225, 72.876 264.244 C 73.917 265.259, 75.014 264.569, 78.582 260.653 C 82.642 256.199, 84.159 253, 82.212 253 C 81.779 253, 79.211 255.247, 76.506 257.994 M 62.245 284.250 C 57.990 288.643, 52.526 300.813, 50.589 310.208 C 47.732 324.066, 48.826 337.130, 53.641 346.676 C 56.338 352.021, 62.487 358.846, 63.603 357.731 C 63.951 357.383, 63.227 351.788, 61.995 345.299 C 58.005 324.285, 59.266 306.088, 66.087 286.250 C 68.248 279.965, 67.016 279.324, 62.245 284.250 M 446.582 287.849 C 452.663 305.333, 453.937 325.971, 450.072 344.360 C 448.933 349.783, 448.010 355.408, 448.022 356.860 C 448.042 359.391, 448.241 359.294, 452.858 354.496 C 461.871 345.129, 465.077 329.230, 461.627 311.011 C 459.083 297.574, 450.257 281, 445.646 281 C 444.476 281, 444.655 282.308, 446.582 287.849 M 78.185 299.861 C 75.004 302.260, 72.014 307.081, 72.007 309.823 C 71.995 313.884, 74.960 311.875, 78.628 305.336 C 82.222 298.929, 82.061 296.937, 78.185 299.861 M 432 300.015 C 432 301.704, 438.122 312, 439.127 312 C 440.757 312, 441.198 309.243, 439.955 306.828 C 438.499 304.001, 433.936 299, 432.813 299 C 432.366 299, 432 299.457, 432 300.015 M 246.382 349.131 C 231.372 360.805, 220.875 363.604, 209.011 359.096 L 204 357.192 204 362.918 C 204 371.409, 206.488 377.514, 212.463 383.682 C 217.989 389.388, 219.598 389.857, 227.415 388.044 C 232.400 386.888, 237.773 388.598, 248.213 394.665 L 255.926 399.147 260.484 396.011 C 262.990 394.287, 267.949 391.515, 271.504 389.851 C 277.524 387.034, 278.314 386.902, 283.033 387.914 C 290.859 389.592, 293.216 389.270, 297.209 385.980 C 301.825 382.175, 305.751 374.233, 307.072 366.032 C 308.515 357.072, 308.155 356.574, 301.995 359.002 C 290.536 363.519, 280.190 360.701, 265.851 349.158 C 261.644 345.771, 257.316 343, 256.233 343 C 255.150 343, 250.717 345.759, 246.382 349.131" stroke="none" fill="black" fill-rule="evenodd"/>
</svg>