<svg xmlns="http://www.w3.org/2000/svg" width="512" height="512" viewBox="0 0 512 512" version="1.1">
	<path d="M 241.226 15.146 C 232.583 16.386, 225.379 19.262, 216.793 24.902 C 199.891 36.005, 190.042 49.920, 185.161 69.592 C 183.627 75.776, 183.094 82.233, 182.715 99.211 L 182.232 120.922 185.158 129.211 C 194.754 156.394, 194.868 157.352, 189.046 161.963 C 186.872 163.686, 183.644 167.661, 181.874 170.797 C 173.941 184.851, 175.030 183.976, 149.681 196.658 C 127.826 207.592, 101.672 222.513, 90.500 230.421 C 87.750 232.368, 83.700 236.292, 81.500 239.141 C 79.189 242.135, 73.963 246.737, 69.123 250.039 C 64.516 253.184, 59.178 257.724, 57.261 260.128 C 55.345 262.533, 50.216 271.733, 45.864 280.573 C 39.718 293.058, 37.288 299.308, 34.979 308.573 C 33.343 315.133, 31.585 321.466, 31.072 322.646 C 30.334 324.340, 31.606 328.335, 37.117 341.639 C 40.955 350.906, 45.270 360.491, 46.705 362.940 C 49.616 367.907, 49.807 365.596, 44.673 387.500 C 40.549 405.095, 37.358 423.766, 34.076 449.500 C 32.393 462.700, 30.551 475.151, 29.983 477.169 C 29.415 479.188, 26.896 483.124, 24.385 485.916 C 21.247 489.407, 20.239 491.150, 21.160 491.494 C 21.897 491.770, 128.025 491.884, 257 491.747 C 515.646 491.475, 496.736 491.999, 486.821 485.373 C 476.091 478.202, 450.695 470.378, 430.500 468.023 C 425 467.381, 418.925 466.610, 417 466.310 C 413.695 465.794, 413.626 465.705, 415.750 464.729 C 418.430 463.497, 418.703 462.002, 416.250 461.995 C 413.778 461.988, 357.060 471.022, 315 478.122 C 264.975 486.567, 267.999 486.204, 261.292 484.565 C 253.663 482.701, 209.792 475.903, 195.500 474.371 C 192.200 474.017, 188.964 473.306, 188.309 472.791 C 184.713 469.961, 192.614 466.496, 205 465.471 C 211.823 464.906, 238.790 461.814, 264.631 458.633 L 274.762 457.385 273.532 460.943 C 272.087 465.121, 270.340 465.705, 258.750 465.882 C 252.739 465.973, 251 466.322, 251 467.435 C 251 468.607, 252.695 468.797, 260.250 468.470 C 267.243 468.168, 268.402 468.276, 265 468.913 C 262.525 469.377, 254.537 470.086, 247.250 470.489 C 234.348 471.204, 234 471.283, 234 473.498 C 234 476.050, 235.785 476.486, 250.500 477.523 C 266.059 478.619, 267 478.848, 267 481.542 C 267 483.844, 267.230 483.933, 271.750 483.374 C 274.363 483.051, 287.300 480.845, 300.500 478.472 C 326.353 473.824, 376.432 465.712, 405.500 461.463 C 424.904 458.626, 429.852 456.826, 433.913 451.123 C 435.036 449.544, 438.844 441.334, 442.374 432.877 C 450.547 413.297, 474.106 360.842, 483.100 342.197 C 486.895 334.330, 490 326.772, 490 325.401 C 490 324.031, 488.841 321.750, 487.424 320.333 C 485.309 318.218, 484.190 317.850, 481.174 318.278 C 479.153 318.565, 466.250 320.415, 452.500 322.390 C 415.429 327.714, 364.419 334.899, 348.500 337.039 C 328.603 339.713, 328.313 339.786, 324.611 343.036 C 321.989 345.339, 320.022 349.168, 315.515 360.737 C 305.183 387.262, 296.774 407.474, 295.503 408.836 C 294.817 409.571, 291.919 410.298, 289.062 410.452 C 282.063 410.829, 280.515 412.482, 285.291 414.477 C 287.296 415.315, 289.625 416, 290.468 416 C 292.347 416, 292.347 415.925, 290.457 420.448 C 289.001 423.934, 288.736 424.095, 285.707 423.335 C 281.325 422.236, 272.566 422.291, 272.207 423.421 C 272.046 423.928, 274.849 425.081, 278.437 425.984 C 285.997 427.887, 286.400 428.165, 285.541 430.872 C 284.975 432.656, 284.316 432.825, 279.949 432.308 C 273.895 431.591, 273.473 433.008, 279 435.500 C 281.200 436.492, 283 437.393, 283 437.503 C 283 437.612, 282.506 439.119, 281.902 440.851 C 280.700 444.299, 280.035 444.635, 278.150 442.750 C 275.695 440.295, 262.443 441.294, 251.075 444.792 C 243.211 447.212, 238.775 448, 233.016 448 C 222.388 448, 221.664 447.318, 222.147 437.765 C 222.629 428.210, 223.732 426.914, 234.365 423.397 C 238.839 421.917, 249.700 417.673, 258.500 413.966 C 267.300 410.258, 279.277 405.363, 285.116 403.089 C 294.923 399.268, 300.210 395.876, 298.704 394.370 C 298.364 394.031, 295.029 394.979, 291.293 396.477 C 287.557 397.975, 280.900 400.249, 276.500 401.530 C 272.100 402.810, 267.639 404.192, 266.586 404.599 C 262.632 406.129, 266.209 402.990, 274.784 397.404 C 289.585 387.761, 294.589 383.484, 296.419 378.911 C 297.334 376.623, 297.875 374.541, 297.619 374.286 C 297.363 374.030, 294.360 375.718, 290.946 378.037 C 284.515 382.404, 268.177 390.511, 267.391 389.725 C 267.145 389.479, 267.448 387.977, 268.065 386.389 C 268.739 384.650, 268.939 381.019, 268.567 377.268 C 268.117 372.735, 268.408 369.629, 269.634 365.880 C 271.139 361.279, 271.194 359.153, 270.150 346.112 C 269.507 338.076, 268.985 326.524, 268.990 320.441 C 268.997 312.253, 268.619 308.878, 267.532 307.441 C 266.228 305.718, 266.034 308.811, 265.798 335 C 265.653 351.225, 265.676 368.429, 265.850 373.231 C 266.213 383.223, 265.099 387.573, 261.227 391.281 C 258.517 393.876, 249.224 398.557, 248.406 397.740 C 248.171 397.504, 248.712 395.329, 249.609 392.906 C 251.685 387.297, 252.899 367.302, 253.458 329.500 C 253.910 298.952, 254.578 293.669, 259.106 284.792 C 261.528 280.044, 262.347 280.698, 263.437 288.250 C 263.814 290.863, 264.484 293, 264.925 293 C 265.789 293, 267 285.730, 267 280.548 C 267 276.814, 268.704 275.089, 281.224 266.149 C 292.248 258.277, 296.087 256.636, 301.557 257.456 C 305.520 258.051, 305.801 257.930, 306.448 255.351 C 307.404 251.543, 306.039 238.065, 304.365 234.780 C 302.734 231.577, 300.142 230, 296.510 230 C 294.380 230, 293.529 230.811, 291.980 234.312 C 290.437 237.802, 289.100 239.080, 284.971 241.014 C 282.165 242.328, 279.649 243.759, 279.381 244.193 C 279.112 244.628, 279.694 247.525, 280.673 250.631 L 282.453 256.280 278.977 258.875 C 277.065 260.303, 272.012 264.818, 267.750 268.909 C 263.488 273, 260 276.128, 260 275.861 C 260 274.850, 265.862 258.309, 267.750 253.992 C 268.834 251.513, 270.845 248.138, 272.220 246.492 C 273.594 244.847, 275.454 242.065, 276.354 240.311 C 278.461 236.201, 281.658 234, 285.523 234 C 291.560 234, 292.281 230.801, 288.851 219.227 L 286.695 211.954 289.022 209.477 C 290.302 208.115, 291.856 207, 292.475 207 C 293.095 207, 295.552 210.488, 297.936 214.750 C 304.536 226.554, 318.342 246.950, 319.750 246.976 C 321.454 247.009, 321.337 245.977, 318.904 239.472 C 316.386 232.742, 302.625 207.345, 299.919 204.436 C 298.210 202.597, 297.200 198, 298.505 198 C 298.783 198, 303.381 199.819, 308.723 202.042 C 314.065 204.266, 324.222 207.836, 331.295 209.978 C 338.367 212.119, 345.234 214.579, 346.556 215.445 C 351.848 218.912, 354.959 230.571, 354.977 247 C 354.991 260.300, 352.964 273.778, 348.530 289.854 C 345.622 300.395, 341.409 318.415, 338.535 332.602 L 337.906 335.704 347.703 334.384 C 360.132 332.710, 376.970 330.035, 379.250 329.373 C 381.106 328.834, 381.688 327, 380.003 327 C 379.454 327, 376.079 325.617, 372.502 323.927 C 367.221 321.432, 365.495 319.994, 363.315 316.275 L 360.631 311.695 365.698 302.098 C 371.615 290.888, 373.589 285.184, 374.971 275.303 C 376.562 263.932, 374.628 261.421, 371.464 270.750 C 369.823 275.590, 356.311 295.644, 355.343 294.677 C 355.193 294.526, 356.174 291.669, 357.524 288.328 C 362.533 275.926, 364.357 265.674, 364.431 249.500 C 364.469 241.250, 364.175 232.925, 363.778 231 L 363.056 227.500 366.923 231.886 C 371.828 237.451, 379.224 251.520, 381.775 260.143 C 383.361 265.502, 384.665 267.671, 388.521 271.366 L 393.301 275.945 392.709 284.327 L 392.118 292.709 396.148 296.605 C 401.175 301.464, 411.615 313.973, 415.830 320.186 C 418.862 324.657, 419.181 324.846, 422.754 324.295 C 424.814 323.977, 426.653 323.590, 426.840 323.436 C 427.813 322.629, 417.479 309.300, 409.352 300.882 L 400.067 291.264 400.241 282.382 C 400.442 272.158, 399.615 270.045, 394.039 266.525 C 390.878 264.529, 389.874 263.080, 388.586 258.649 C 386.157 250.293, 378.638 236.120, 373.305 229.847 C 370.662 226.738, 364.811 220.800, 360.301 216.651 C 353.976 210.832, 350.907 208.753, 346.870 207.554 C 343.992 206.699, 341.268 206, 340.816 206 C 339.999 206, 301.764 191.067, 301.208 190.531 C 300.548 189.895, 306.041 169.841, 307.841 166.313 C 310.461 161.180, 312.474 159.536, 319.230 157.012 C 326.322 154.362, 330.053 150.085, 333.613 140.523 C 335.051 136.660, 337.329 131.025, 338.674 128 L 341.120 122.500 337.641 119.500 C 335.728 117.850, 332.710 115.254, 330.934 113.730 L 327.706 110.961 328.302 102.509 C 329.066 91.689, 329.772 90.438, 335.725 89.363 C 339.906 88.607, 340.728 88.033, 342.335 84.744 C 344.222 80.882, 346 80.579, 346 84.118 C 346 85.218, 346.450 85.840, 347 85.500 C 348.608 84.506, 348.147 79.748, 346.128 76.500 C 345.102 74.850, 342.506 71.676, 340.359 69.447 C 338.212 67.218, 334.703 62.043, 332.562 57.947 C 330.421 53.851, 327.506 48.957, 326.085 47.071 C 321.553 41.059, 309.109 31.258, 300.164 26.657 C 279.186 15.867, 260.990 12.313, 241.226 15.146 M 244.587 63.746 C 243.073 65.260, 244.199 76.944, 246.483 83.418 C 249.308 91.424, 249.857 90.489, 238.716 96.633 C 231.334 100.704, 228 104.808, 228 109.824 C 228 112.897, 229.602 114.145, 243.247 121.701 C 243.658 121.928, 243.545 120.934, 242.997 119.492 C 242.449 118.050, 242 116.295, 242 115.593 C 242 113.904, 253.430 110.475, 258.500 110.643 C 262.500 110.775, 277.329 116.108, 286.217 120.611 C 292.994 124.044, 296.149 123.671, 307.507 118.091 C 320.980 111.473, 321.611 110.677, 322.295 99.435 C 322.598 94.449, 322.543 89.903, 322.173 89.334 C 321.143 87.751, 318.323 86.493, 308.277 83.137 C 303.205 81.443, 296.230 78.649, 292.777 76.928 C 285.325 73.214, 286.939 75.346, 296.135 81.363 C 302.658 85.630, 304.151 88.265, 300.355 88.806 C 295.302 89.526, 266.730 77.209, 253.597 68.649 C 248.965 65.629, 244.910 63.423, 244.587 63.746 M 194.038 108.459 L 191.728 110.918 195.351 110.330 C 198.271 109.857, 199.637 110.248, 202.392 112.350 C 208.725 117.180, 210.248 120.924, 210.292 131.768 C 210.335 142.637, 209.522 143.832, 205.019 139.518 C 201.593 136.236, 200.872 133.054, 202.088 126.583 C 203.588 118.599, 199.094 113.875, 195.384 119.536 C 191.869 124.901, 196.453 143.557, 202.616 148.967 C 206.825 152.664, 208.180 152.727, 212.499 149.433 L 215.866 146.865 217.360 149.183 C 218.183 150.457, 219.373 154.425, 220.005 158 C 220.638 161.575, 221.961 166.335, 222.946 168.579 C 226.178 175.941, 245.093 192.305, 258.500 199.336 C 264.140 202.294, 265.144 202.484, 275.220 202.492 C 284.621 202.499, 286.183 202.254, 287.917 200.500 C 289.683 198.714, 296 183.374, 296 180.873 C 296 178.801, 293.696 181.433, 291.844 185.621 C 289.604 190.684, 287.666 191.511, 278.117 191.479 C 271.911 191.458, 271.632 191.343, 268.091 187.353 C 263.722 182.429, 260.305 176.362, 261.326 175.341 C 261.732 174.935, 264.081 175.142, 266.546 175.801 C 271.206 177.047, 289.544 177.441, 294.720 176.406 C 297.283 175.893, 298.047 174.904, 300.293 169.187 C 301.725 165.544, 302.791 162.457, 302.662 162.328 C 302.533 162.199, 300.868 164.175, 298.963 166.719 C 293.621 173.853, 290.955 175.470, 286.797 174.098 C 282.831 172.789, 276.585 166.737, 275.084 162.750 C 273.756 159.221, 274.796 159.206, 282 162.647 C 289.225 166.098, 295.589 166.224, 300.281 163.010 C 305.479 159.448, 306.435 157.435, 304.058 155.058 C 300.944 151.944, 299.157 147.719, 298.495 141.906 C 297.378 132.101, 297.327 132, 293.495 132 C 290.245 132, 289.833 132.390, 286.885 138.250 C 285.157 141.688, 282.360 146.254, 280.670 148.397 C 274.773 155.880, 260.818 159.731, 254.530 155.611 C 251.113 153.373, 248.050 146.703, 248.022 141.441 C 248.010 139.209, 247.438 136.648, 246.750 135.750 C 245.114 133.615, 227.970 122, 226.454 122 C 225.739 122, 224.677 125.929, 223.728 132.080 C 222.873 137.624, 221.929 142.404, 221.630 142.703 C 220.528 143.805, 218.060 142.016, 216.488 138.976 C 215.599 137.257, 214.613 132.621, 214.297 128.675 C 213.982 124.729, 213.154 120.369, 212.458 118.986 C 210.598 115.290, 200.423 106, 198.234 106 C 197.197 106, 195.309 107.107, 194.038 108.459 M 247.172 121.799 C 244.855 122.506, 244.859 122.520, 248.037 124.869 C 251.172 127.187, 251.320 127.200, 256.230 125.615 C 258.980 124.727, 263.293 124, 265.815 124 C 269.389 124, 270.135 123.735, 269.196 122.796 C 267.836 121.436, 250.878 120.668, 247.172 121.799 M 308.441 126.468 C 306.767 127.735, 306.729 127.941, 308.168 127.968 C 310.521 128.013, 313 126.948, 313 125.893 C 313 124.527, 310.608 124.829, 308.441 126.468 M 315.348 131.400 C 307.547 135.139, 305 137.871, 305 142.500 C 305 149.234, 311.837 152.879, 318.505 149.699 C 322.414 147.835, 326.641 139.979, 327.625 132.750 C 328.269 128.022, 328.258 128, 325.358 128 C 323.755 128, 319.251 129.530, 315.348 131.400 M 267.326 130.044 C 258.040 131.881, 254.215 136.001, 255.489 142.795 C 256.364 147.456, 259.247 150, 263.654 150 C 266.632 150, 267.987 149.263, 270.987 146.014 C 273.011 143.822, 275.933 139.702, 277.481 136.858 C 280.175 131.908, 280.216 131.631, 278.456 130.344 C 276.436 128.867, 273.659 128.792, 267.326 130.044 M 209.111 160.725 C 207.335 162.176, 206.745 164.235, 205.876 172 C 204.469 184.577, 205.020 189.162, 208.919 197.330 C 213.442 206.808, 225.421 224.457, 229.380 227.476 C 232.522 229.873, 239 231.972, 239 230.593 C 239 230.231, 238.286 228.263, 237.414 226.218 C 234.511 219.411, 230.177 206.611, 227.520 197 C 225.648 190.229, 223.629 185.633, 220.493 181 C 217.699 176.873, 215.354 171.801, 214.070 167.108 C 212.958 163.042, 211.876 159.543, 211.666 159.333 C 211.455 159.122, 210.306 159.749, 209.111 160.725 M 184.941 179.669 C 183.126 182.876, 179.621 188.153, 177.151 191.395 L 172.660 197.290 173.920 203.395 C 174.613 206.753, 177.450 216.925, 180.223 226 C 182.997 235.075, 186.022 245.425, 186.947 249 C 187.871 252.575, 189.111 255.500, 189.701 255.500 C 190.292 255.500, 193.638 252.309, 197.137 248.410 C 205.695 238.873, 212.643 233, 215.368 233 C 216.894 233, 218.632 234.443, 220.787 237.500 C 223.707 241.643, 224.299 242, 228.257 242 C 234.839 242, 237 244.043, 237 250.264 C 237 255.370, 237.064 255.475, 244.228 262.146 C 248.204 265.848, 251.609 268.724, 251.795 268.538 C 251.981 268.352, 249.902 263.767, 247.174 258.350 C 244.446 252.932, 241.888 247.375, 241.489 246 C 240.253 241.741, 238.108 240.247, 231.419 238.985 C 225.660 237.898, 224.532 237.275, 220.947 233.203 C 212.791 223.937, 196.877 195.481, 191.473 180.500 C 190.481 177.750, 189.348 175.126, 188.954 174.669 C 188.561 174.213, 186.755 176.463, 184.941 179.669 M 276 184 C 277.823 185.178, 283.759 185.178, 286.500 184 C 287.879 183.407, 286.328 183.124, 281.500 183.086 C 276.632 183.047, 274.957 183.326, 276 184 M 150.500 209.629 C 144.450 213.208, 134.775 218.542, 129 221.483 C 123.225 224.424, 114.508 229.084, 109.630 231.838 L 100.759 236.844 105.630 239.361 C 117.766 245.633, 127.546 256.204, 135.110 271.230 C 143.641 288.173, 146.982 300.773, 147.036 316.197 L 147.072 326.500 149.504 323.524 C 152.596 319.740, 156.594 308.998, 158.074 300.495 C 159.890 290.071, 161.500 292.700, 161.500 306.088 C 161.500 314.647, 161.019 318.966, 159.577 323.364 C 157.792 328.808, 157.774 329.294, 159.327 330.163 C 161.817 331.557, 161.415 333.094, 156.918 339.374 C 153.216 344.545, 152.897 345.465, 153.483 349.287 C 154.658 356.945, 159.437 365.021, 168.198 374.153 C 179.862 386.309, 183.563 387.016, 206.181 381.403 C 219.582 378.077, 224 378.404, 224 382.720 C 224 384.469, 212.180 392.046, 201.333 397.251 C 193.478 401.020, 191.761 401.460, 183.569 401.797 C 178.581 402.003, 172.487 401.708, 170.027 401.142 C 167.567 400.576, 165.382 400.284, 165.172 400.494 C 164.962 400.705, 169.450 403.267, 175.145 406.188 L 185.500 411.500 205 411.500 C 223.824 411.500, 224.670 411.413, 229.410 409 C 235.472 405.913, 241.972 399.712, 244.298 394.795 C 248.994 384.869, 248.615 367.381, 243.545 360.065 L 240.893 356.238 243.902 351.494 C 248.654 344.001, 249.341 338.499, 247.949 319.094 C 246.824 303.413, 246.893 299.646, 248.576 284.974 L 249.210 279.449 244.757 275.474 C 236.330 267.955, 229.880 262.787, 229.453 263.214 C 229.218 263.449, 229.928 266.210, 231.032 269.350 C 232.550 273.669, 232.782 275.540, 231.984 277.030 C 231.404 278.113, 230.689 279, 230.394 279 C 230.100 279, 227.753 277.229, 225.179 275.065 C 215.183 266.657, 199.060 262.942, 186.405 266.128 C 183.940 266.749, 181.738 267.072, 181.512 266.846 C 181.286 266.620, 179.946 261.090, 178.533 254.557 C 173.901 233.130, 164.605 202.960, 162.668 203.061 C 162.025 203.095, 156.550 206.050, 150.500 209.629 M 87.542 249.216 C 78.889 259.312, 75.061 271.837, 74.299 292.552 C 73.826 305.387, 73.990 308.080, 75.412 310.831 C 77.778 315.406, 82.034 318.900, 90.841 323.500 C 103.307 330.011, 103.576 334.013, 92.208 343.900 C 89.003 346.688, 82.585 351.795, 77.947 355.249 C 73.308 358.703, 68.949 362.705, 68.260 364.142 C 66.446 367.928, 62.958 388.930, 62.299 400.041 C 61.670 410.623, 62.838 414.537, 67.542 417.619 C 69.992 419.225, 72.571 419.181, 80.250 417.403 C 84.266 416.474, 83.796 418.817, 79.033 423.468 C 74.768 427.633, 72 432.526, 72 435.901 C 72 439.025, 73.668 438.484, 79.103 433.597 C 88.074 425.532, 104.143 416.346, 112.516 414.496 C 118.296 413.220, 120.753 411.838, 121.963 409.182 C 123.730 405.306, 131.398 351.722, 130.626 348.647 C 129.078 342.478, 124.778 342.991, 105.692 351.621 C 98.986 354.653, 92.856 357.407, 92.070 357.743 C 89.217 358.959, 93.596 354.042, 99.337 349.585 C 105.869 344.512, 120.632 336.688, 126.750 335.056 C 131.815 333.705, 132.262 331.625, 128.007 329.203 C 123.670 326.735, 124.867 325.500, 131.597 325.500 L 137.500 325.500 137.436 318.500 C 137.351 309.138, 134.344 299.611, 126.074 282.500 C 116.723 263.150, 110.442 255.374, 98 247.742 C 92.680 244.479, 91.454 244.652, 87.542 249.216 M 335.649 304.765 C 334.341 306.835, 332.601 309.087, 331.780 309.768 C 330.424 310.893, 317.140 312.586, 304.532 313.242 C 300.288 313.462, 299.342 313.899, 298.032 316.241 C 296.096 319.705, 297.611 322.632, 301.131 322.229 C 302.434 322.080, 308.391 321.531, 314.369 321.008 C 334.772 319.227, 340 315.982, 340 305.099 C 340 300.001, 338.718 299.902, 335.649 304.765 M 256.067 330.874 C 252.833 336.918, 258.087 341.876, 262.527 336.970 C 263.981 335.364, 264.166 334.371, 263.414 332.220 C 262.192 328.725, 257.662 327.895, 256.067 330.874 M 401.370 378.618 C 397.768 380.362, 391.024 387, 392.853 387 C 395.004 387, 399.384 384.300, 402.427 381.100 C 405.925 377.420, 405.569 376.584, 401.370 378.618 M 397.512 388.119 C 395.869 388.578, 392.269 388.853, 389.512 388.729 C 380.800 388.338, 376.085 393.513, 373.759 406.023 C 372.967 410.279, 372.961 412.619, 373.736 414.320 C 374.748 416.542, 375.309 416.681, 382.658 416.542 C 391.566 416.372, 393.986 415.385, 396.825 410.763 C 398.337 408.302, 398.705 406.394, 398.324 403 C 397.887 399.100, 398.242 397.921, 400.984 394.157 C 402.724 391.768, 404.002 389.728, 403.824 389.624 C 403.646 389.520, 402.825 388.950, 402 388.359 C 401.059 387.684, 399.387 387.595, 397.512 388.119 M 110.249 424.491 C 103.928 427.238, 93.369 434.746, 90.202 438.745 C 86.284 443.692, 83.052 450.602, 83.022 454.095 C 82.961 461.356, 97.154 465.597, 125 466.636 C 143.901 467.341, 148.205 466.593, 152.903 461.788 C 156.151 458.466, 167.073 440.667, 168.980 435.587 C 169.582 433.985, 169.720 432.357, 169.287 431.968 C 168.854 431.580, 163.325 430.750, 157 430.125 C 150.675 429.500, 138.975 427.653, 131 426.020 C 114.313 422.603, 114.552 422.621, 110.249 424.491 M 193 425.678 C 179.511 426.434, 179.066 426.615, 176.406 432.425 C 174.904 435.705, 173.445 441.836, 172.549 448.628 C 171.756 454.638, 170.826 460.289, 170.482 461.185 C 169.913 462.669, 170.229 462.687, 173.997 461.389 C 177.453 460.198, 179.533 460.164, 186.586 461.184 C 194.370 462.310, 195.976 462.216, 207.017 459.997 C 213.608 458.672, 219 457.208, 219 456.744 C 219 456.280, 218.231 454.461, 217.292 452.700 C 215.077 448.550, 215.032 435.218, 217.213 429.250 L 218.766 425 208.633 425.185 C 203.060 425.287, 196.025 425.509, 193 425.678 M 224.500 470.717 C 219.980 471.375, 219.105 472.819, 221.861 475.071 C 226.045 478.490, 231.677 476.755, 230.821 472.310 C 230.448 470.373, 229.136 470.042, 224.500 470.717" stroke="none" fill="black" fill-rule="evenodd"/>
</svg>